<svg width="22" height="20" viewBox="0 0 22 20" fill="none" xmlns="http://www.w3.org/2000/svg">
<path d="M15.5463 11C16.2963 11 16.9563 10.59 17.2963 9.97L20.8763 3.48C21.2463 2.82 20.7663 2 20.0063 2H5.20628L4.26628 0H0.996277V2H2.99628L6.59628 9.59L5.24628 12.03C4.51628 13.37 5.47628 15 6.99628 15H18.9963V13H6.99628L8.09628 11H15.5463ZM6.15628 4H18.3063L15.5463 9H8.52628L6.15628 4ZM6.99628 16C5.89628 16 5.00628 16.9 5.00628 18C5.00628 19.1 5.89628 20 6.99628 20C8.09628 20 8.99628 19.1 8.99628 18C8.99628 16.9 8.09628 16 6.99628 16ZM16.9963 16C15.8963 16 15.0063 16.9 15.0063 18C15.0063 19.1 15.8963 20 16.9963 20C18.0963 20 18.9963 19.1 18.9963 18C18.9963 16.9 18.0963 16 16.9963 16Z" fill="#2D2D2B"/>
</svg>
